<svg width="160" height="160" viewBox="0 0 160 160" fill="none" xmlns="http://www.w3.org/2000/svg">
<g opacity="0.2">
<path d="M106.667 106.667L80 80M80 80L53.3333 106.667M80 80V140M135.933 122.6C142.436 119.055 147.572 113.446 150.532 106.658C153.493 99.8691 154.108 92.2882 152.281 85.1113C150.455 77.9343 146.29 71.5701 140.444 67.023C134.599 62.4759 127.406 60.0049 120 60H111.6C109.582 52.1949 105.821 44.9489 100.6 38.8066C95.3782 32.6643 88.8323 27.7857 81.454 24.5374C74.0757 21.2891 66.057 19.7557 58.0008 20.0526C49.9445 20.3494 42.0604 22.4687 34.9412 26.2511C27.8219 30.0335 21.6527 35.3807 16.8975 41.8905C12.1422 48.4004 8.92458 55.9036 7.48651 63.836C6.04844 71.7684 6.42735 79.9235 8.59473 87.6884C10.7621 95.4533 14.6616 102.626 20 108.667" stroke="#1E1E1E" stroke-width="4" stroke-linecap="round" stroke-linejoin="round"/>
</g>
</svg>
